<?xml version="1.0" encoding="UTF-8"?>
<svg version="1.1" xmlns="http://www.w3.org/2000/svg" width="1931" height="2177">
<path d="M0 0 C11.1441283 8.51332968 20.23740072 19.93172106 22.6640625 34.03515625 C24.2417022 49.72710244 20.31704832 65.02117346 17.13228607 80.28269958 C16.49717274 83.33800341 15.87394511 86.39568954 15.25021935 89.45333481 C4.6910924 141.17876765 -6.48765249 192.82680543 -19.3359375 244.03515625 C-19.57916748 245.0046521 -19.82239746 245.97414795 -20.07299805 246.97302246 C-44.10495162 342.52227516 -74.6924092 437.09658891 -108.45770264 529.62506104 C-109.34094451 532.04889672 -110.22007004 534.47419036 -111.09814453 536.89990234 C-123.80168319 571.96314984 -123.80168319 571.96314984 -131.3359375 587.03515625 C-131.69075195 587.7513916 -132.04556641 588.46762695 -132.41113281 589.20556641 C-152.57413659 629.23319767 -201.72656845 645.16773366 -240.16894531 662.82080078 C-251.74184208 668.16510087 -263.19427997 673.75448463 -274.6484375 679.34765625 C-275.61460999 679.81837555 -276.58078247 680.28909485 -277.57623291 680.77407837 C-309.0246725 694.30442214 -309.0246725 694.30442214 -333.3359375 717.03515625 C-332.9059702 723.63901294 -327.84423281 727.67066621 -323.3359375 732.03515625 C-314.26299576 739.85156023 -300.62882162 740.49265702 -289.2109375 742.09765625 C-288.00808105 742.2675708 -286.80522461 742.43748535 -285.56591797 742.61254883 C-270.83178127 744.61301857 -256.00437328 745.80474574 -241.140625 746.234375 C-225.5008199 746.68920079 -214.05802488 748.6784004 -202.8984375 760.47265625 C-200.09678936 764.01117623 -199.18656914 766.40473707 -199.3359375 771.03515625 C-201.49992037 779.47607897 -204.58218797 787.5448443 -208.0234375 795.53515625 C-208.49128662 796.62989258 -208.95913574 797.72462891 -209.44116211 798.85253906 C-224.70272273 834.23926137 -241.47922938 869.02109905 -258.37109375 903.65234375 C-258.78976589 904.51093616 -259.20843803 905.36952858 -259.63979721 906.25413895 C-269.89423336 927.26919876 -280.33673036 948.19004316 -290.80322266 969.10009766 C-293.46346954 974.41481501 -296.12002928 979.73136601 -298.77559853 985.04842186 C-300.86932528 989.23951718 -302.96498382 993.42964431 -305.06119919 997.61949539 C-306.04157142 999.57958471 -307.02137639 1001.53995789 -308.00053787 1003.50065231 C-313.95985534 1015.43059617 -320.03758214 1027.28790843 -326.29127312 1039.06637096 C-327.28393866 1040.93715869 -328.27296184 1042.80981231 -329.26022339 1044.68345642 C-335.80678322 1057.10557461 -342.58179222 1069.37666027 -349.7109375 1081.47265625 C-350.35240723 1082.56707031 -350.99387695 1083.66148438 -351.65478516 1084.7890625 C-390.82788096 1150.62008183 -497.20480065 1168.37391435 -565.5234375 1189.59765625 C-581.23291902 1194.47859173 -596.92102642 1199.41962333 -612.56851196 1204.49630737 C-614.6653916 1205.17599276 -616.76300105 1205.85343178 -618.86141968 1206.52835083 C-628.63560395 1209.67507652 -638.34814864 1212.88672089 -647.85546875 1216.77734375 C-648.52742783 1217.05195435 -649.1993869 1217.32656494 -649.89170837 1217.60949707 C-657.55737037 1220.83941531 -666.28695614 1225.18296726 -671.3359375 1232.03515625 C-671.41497534 1235.19666988 -670.49312539 1236.76862026 -668.8984375 1239.47265625 C-657.0221739 1251.34891985 -639.17777924 1252.47501662 -623.30078125 1254.07351685 C-618.4815058 1254.56015749 -613.66652554 1255.08589557 -608.8515625 1255.61328125 C-607.83775513 1255.72398453 -606.82394775 1255.83468781 -605.77941895 1255.94874573 C-595.03187389 1257.14375433 -584.32954489 1258.64114996 -573.62072754 1260.13839722 C-553.91037968 1262.89417618 -534.23703609 1265.18432783 -514.390625 1266.70532227 C-495.10109205 1268.22412583 -479.62304417 1272.21193447 -466.35546875 1287.28515625 C-465.3359375 1290.03515625 -465.3359375 1290.03515625 -466.66015625 1293.75 C-467.4222426 1295.17161659 -468.21198399 1296.5786288 -469.0234375 1297.97265625 C-469.44189941 1298.72192383 -469.86036133 1299.47119141 -470.29150391 1300.24316406 C-481.65523105 1320.16663662 -497.67200412 1339.4222659 -515.3359375 1354.03515625 C-516.23054688 1354.81761719 -517.12515625 1355.60007812 -518.046875 1356.40625 C-532.4584292 1368.97351697 -548.08454028 1379.98836596 -564.3359375 1390.03515625 C-565.26148438 1390.60878906 -566.18703125 1391.18242188 -567.140625 1391.7734375 C-593.45857306 1408.00853533 -620.7565825 1421.95579182 -649.3984375 1433.59765625 C-650.2179892 1433.93287292 -651.03754089 1434.2680896 -651.88192749 1434.61346436 C-665.94320102 1440.36188621 -680.1089141 1445.8139003 -694.3243103 1451.16799927 C-705.35481938 1455.32348948 -716.3037586 1459.61182348 -727.1706543 1464.17810059 C-747.01350915 1472.51342929 -767.21318405 1479.79405126 -787.48266602 1487.01763916 C-790.32057968 1488.02967943 -793.15751562 1489.04441248 -795.99414062 1490.06005859 C-821.33161274 1499.13038766 -846.72519586 1508.03639457 -872.14257812 1516.87988281 C-893.14393079 1524.18747035 -914.13905394 1531.51277338 -935.12611103 1538.86131287 C-938.55696807 1540.06257402 -941.98800333 1541.26332029 -945.41949463 1542.46276855 C-977.44609172 1553.65746716 -1009.38465116 1565.04999377 -1041.1484375 1576.97265625 C-1041.82161388 1577.22514885 -1042.49479027 1577.47764145 -1043.18836594 1577.73778534 C-1073.00659805 1588.68336901 -1073.00659805 1588.68336901 -1102.0859375 1601.41015625 C-1103.52332275 1602.10322876 -1103.52332275 1602.10322876 -1104.98974609 1602.81030273 C-1113.49370977 1606.98540293 -1121.55213787 1611.63720389 -1129.3359375 1617.03515625 C-1129.89925781 1617.42493652 -1130.46257812 1617.8147168 -1131.04296875 1618.21630859 C-1140.44957477 1624.83893374 -1148.38737874 1632.76484174 -1156.3359375 1641.03515625 C-1152.80622179 1644.94174265 -1148.70898667 1647.61466067 -1144.3359375 1650.47265625 C-1143.55138184 1650.99126221 -1142.76682617 1651.50986816 -1141.95849609 1652.04418945 C-1137.69760834 1654.8540881 -1133.41672504 1657.6320046 -1129.125 1660.39453125 C-1106.60461323 1674.89555633 -1086.55295728 1689.60111668 -1074.3359375 1714.03515625 C-1073.05192594 1727.94878973 -1076.75456186 1740.05417372 -1085.3359375 1751.03515625 C-1093.04763496 1759.87049061 -1102.51451731 1768.84705079 -1114.61328125 1770.4765625 C-1126.35038215 1770.8648764 -1133.60684066 1767.52122081 -1143.3359375 1761.03515625 C-1143.6669043 1761.60733887 -1143.99787109 1762.17952148 -1144.33886719 1762.76904297 C-1150.21668404 1772.90048983 -1156.13846069 1782.98135794 -1162.6484375 1792.72265625 C-1163.14384033 1793.46555908 -1163.63924316 1794.20846191 -1164.1496582 1794.97387695 C-1166.86549549 1798.99789477 -1169.73506894 1802.80823029 -1172.7734375 1806.59765625 C-1177.72325492 1813.39092419 -1179.39476472 1821.00472624 -1181.3359375 1829.03515625 C-1181.72797363 1830.627229 -1181.72797363 1830.627229 -1182.12792969 1832.25146484 C-1184.51911569 1841.97571215 -1186.85757844 1851.71296544 -1189.13769531 1861.46386719 C-1196.84037549 1894.35930311 -1196.84037549 1894.35930311 -1209.3359375 1906.03515625 C-1210.08351318 1906.74345581 -1210.08351318 1906.74345581 -1210.84619141 1907.46606445 C-1215.42768778 1911.62507314 -1220.33274395 1914.44045159 -1225.8359375 1917.22265625 C-1227.21072266 1917.92974731 -1227.21072266 1917.92974731 -1228.61328125 1918.65112305 C-1238.05428089 1923.4717013 -1247.62534601 1928.01880614 -1257.20605469 1932.55322266 C-1287.12054108 1946.71710194 -1316.79014217 1961.45337688 -1345.70751953 1977.57080078 C-1348.55754888 1979.15862133 -1351.41353849 1980.73543338 -1354.26953125 1982.3125 C-1369.80503576 1990.92078577 -1385.11346327 1999.88723 -1400.3359375 2009.03515625 C-1401.84269043 2009.93379395 -1401.84269043 2009.93379395 -1403.37988281 2010.85058594 C-1418.51411553 2019.89123302 -1433.23146507 2029.51006762 -1447.8984375 2039.28515625 C-1449.2309404 2040.17249451 -1449.2309404 2040.17249451 -1450.59036255 2041.07775879 C-1461.02228321 2048.03325742 -1471.3648563 2055.09657519 -1481.57885742 2062.36865234 C-1499.1845068 2074.89763287 -1516.70632698 2086.27984657 -1539.3359375 2084.03515625 C-1548.09151108 2082.31387704 -1554.60981148 2077.81240681 -1560.3359375 2071.03515625 C-1566.43283734 2061.15867419 -1569.02124314 2052.04734444 -1566.49882507 2040.5625 C-1566.11382525 2039.02944931 -1565.71608342 2037.49955674 -1565.30737305 2035.97265625 C-1565.09075547 2035.12394707 -1564.8741379 2034.27523788 -1564.65095615 2033.40081024 C-1563.93582248 2030.60930532 -1563.20414121 2027.8224166 -1562.47265625 2025.03515625 C-1561.96293463 2023.05537197 -1561.4544771 2021.07526185 -1560.94720459 2019.09484863 C-1559.87262459 2014.90616832 -1558.79174299 2010.71919067 -1557.70578003 2006.53344727 C-1554.89697253 1995.69909454 -1552.1397177 1984.85156039 -1549.3828125 1974.00390625 C-1549.11271803 1972.94224747 -1548.84262356 1971.88058868 -1548.56434441 1970.78675842 C-1542.59821386 1947.31847731 -1537.03766609 1923.79310285 -1532.3359375 1900.03515625 C-1532.08284821 1898.76239838 -1532.08284821 1898.76239838 -1531.824646 1897.46392822 C-1524.2886763 1859.41119919 -1518.93216121 1820.84732658 -1517.67675781 1782.04711914 C-1517.32007284 1771.41183967 -1516.69121945 1765.14126094 -1509.3359375 1757.03515625 C-1508.68496094 1756.31457031 -1508.03398438 1755.59398437 -1507.36328125 1754.8515625 C-1501.55350604 1748.75944307 -1495.00507446 1743.67513871 -1488.33837891 1738.57568359 C-1486.23596239 1736.95824294 -1484.14989008 1735.32143336 -1482.06640625 1733.6796875 C-1473.94120751 1727.28844874 -1465.71578558 1721.08754873 -1457.30664062 1715.07519531 C-1439.16608845 1702.06268667 -1421.54272927 1688.25709639 -1404.3359375 1674.03515625 C-1405.3259375 1672.55015625 -1405.3259375 1672.55015625 -1406.3359375 1671.03515625 C-1405.64021126 1660.23851572 -1399.49077829 1650.17817766 -1394.5703125 1640.75390625 C-1394.23540802 1640.11184235 -1393.90050354 1639.46977844 -1393.55545044 1638.80825806 C-1391.85322749 1635.55195707 -1390.13782031 1632.30344936 -1388.40380859 1629.06396484 C-1387.75868204 1627.84348104 -1387.11365826 1626.62294291 -1386.46875 1625.40234375 C-1385.89012207 1624.32065918 -1385.31149414 1623.23897461 -1384.71533203 1622.12451172 C-1383.3152348 1618.98878953 -1382.55218398 1616.46016314 -1382.3359375 1613.03515625 C-1383.9506889 1610.85157196 -1385.38868801 1609.24220409 -1387.3359375 1607.41015625 C-1395.40225355 1599.23436601 -1402.26880982 1589.80650699 -1402.359375 1577.97265625 C-1401.87445227 1566.94704472 -1398.38951177 1559.37587911 -1391.3359375 1551.03515625 C-1390.85769531 1550.44992187 -1390.37945313 1549.8646875 -1389.88671875 1549.26171875 C-1382.31142548 1540.82776503 -1368.79251189 1533.29464605 -1357.58203125 1531.625 C-1330.63336294 1530.2255352 -1301.86301021 1553.55697128 -1280.3359375 1567.03515625 C-1280.231604 1565.94581787 -1280.12727051 1564.85647949 -1280.01977539 1563.73413086 C-1276.21223245 1524.08361074 -1272.13586758 1484.46084662 -1267.98410034 1444.84507751 C-1266.99498464 1435.39991644 -1266.02106153 1425.95357846 -1265.07481384 1416.50402832 C-1261.74778332 1383.38599294 -1257.47939154 1350.43677106 -1252.85448837 1317.47755432 C-1252.40831459 1314.2931504 -1251.96506665 1311.10835078 -1251.52236938 1307.92346191 C-1246.13051938 1269.23260999 -1239.58293194 1230.7167168 -1230.98046875 1192.59765625 C-1230.77871536 1191.70175781 -1230.57696198 1190.80585937 -1230.36909485 1189.8828125 C-1211.31664743 1105.96052145 -1188.23076069 1021.56104908 -1147.3359375 927.03515625 C-1146.98921997 926.2480426 -1146.64250244 925.46092896 -1146.28527832 924.64996338 C-1137.31113231 904.27825391 -1128.17833097 884.00499254 -1118.3359375 864.03515625 C-1117.81580078 862.97441895 -1117.29566406 861.91368164 -1116.75976562 860.82080078 C-1109.7988826 846.64625357 -1102.58014608 832.6487252 -1094.90136719 818.84960938 C-1093.26057479 815.89966321 -1091.6302811 812.94404767 -1090 809.98828125 C-1082.91616686 797.19407256 -1075.5549294 784.59374004 -1067.984375 772.08203125 C-1065.1138089 767.33751852 -1062.28448665 762.57074233 -1059.47802734 757.78808594 C-1047.5535891 737.47783718 -1035.14790625 717.56805766 -1022.0859375 697.97265625 C-1021.54248688 697.15652863 -1020.99903625 696.340401 -1020.43911743 695.49954224 C-1010.8000159 681.0428017 -1000.92640517 666.75113803 -990.5859375 652.78515625 C-990.01576904 652.01341064 -989.44560059 651.24166504 -988.8581543 650.4465332 C-974.61449315 631.22730706 -959.94158026 612.36377198 -944.80810547 593.83935547 C-943.51322239 592.25242579 -942.22303272 590.66166888 -940.93359375 589.0703125 C-935.37252034 582.22204669 -929.64736942 575.52403617 -923.88867188 568.84228516 C-922.34947768 567.05091481 -920.81806631 565.25319738 -919.2890625 563.453125 C-913.57907514 556.73891022 -907.75884103 550.15724013 -901.7734375 543.6875 C-899.81849872 541.56025091 -897.90711705 539.41243373 -896.0234375 537.22265625 C-891.04788895 531.48892888 -885.80499121 525.99415372 -880.60546875 520.46435547 C-878.90122552 518.64021389 -877.20740279 516.80840774 -875.51953125 514.96923828 C-865.73593526 504.34629843 -855.57049921 494.11480583 -845.34765625 483.91650391 C-842.92399922 481.49860012 -840.50494055 479.07615276 -838.08712959 476.65240479 C-835.73760995 474.29837747 -833.3842613 471.94819346 -831.03125 469.59765625 C-830.17588654 468.74026855 -829.32052307 467.88288086 -828.4392395 466.99951172 C-824.0748316 462.65198188 -819.6465771 458.44901271 -814.96481323 454.44384766 C-812.98715929 452.73352436 -811.15156842 450.91563113 -809.3359375 449.03515625 C-806.25348245 445.91104641 -803.06083978 443.00814537 -799.734375 440.1484375 C-796.54446797 437.33778651 -793.44337859 434.43636211 -790.3359375 431.53515625 C-785.40979616 426.94421427 -780.45316996 422.41343817 -775.3359375 418.03515625 C-774.30199072 417.14724326 -773.26814617 416.2592112 -772.234375 415.37109375 C-769.8367401 413.31263481 -767.43665837 411.25707049 -765.03515625 409.203125 C-762.65806797 407.1694423 -760.28557129 405.13065405 -757.91796875 403.0859375 C-748.84225953 395.25663266 -739.61532549 387.62142584 -730.3359375 380.03515625 C-729.29421387 379.18123291 -729.29421387 379.18123291 -728.23144531 378.31005859 C-720.42766167 371.91462838 -712.56846071 365.61626655 -704.546875 359.49609375 C-701.11643317 356.87629171 -697.72529486 354.20777614 -694.3359375 351.53515625 C-688.3573947 346.82704358 -682.34631819 342.16313876 -676.30175781 337.54003906 C-674.87043086 336.4443238 -673.44024525 335.34711714 -672.01074219 334.24902344 C-660.6393854 325.51501264 -649.18008673 316.93706253 -637.515625 308.59863281 C-635.3451948 307.04179646 -633.18305847 305.47413311 -631.0234375 303.90234375 C-610.12590557 288.69987051 -588.76120743 274.22683412 -567.22793579 259.94665527 C-563.93718505 257.76419585 -560.64910112 255.57793431 -557.36694336 253.38256836 C-550.25790922 248.62780132 -543.12548438 243.922171 -535.8984375 239.34765625 C-534.97434082 238.76153564 -534.05024414 238.17541504 -533.09814453 237.5715332 C-530.17941636 235.72287462 -527.25821801 233.87819373 -524.3359375 232.03515625 C-523.38541504 231.43541992 -522.43489258 230.83568359 -521.45556641 230.21777344 C-470.61881932 198.18743525 -418.58201647 168.14108179 -365.60742188 139.79003906 C-362.35130909 138.04340184 -359.1008492 136.28664223 -355.8515625 134.52734375 C-335.84152503 123.71322029 -315.625738 113.3132347 -295.3359375 103.03515625 C-293.7181842 102.21549377 -293.7181842 102.21549377 -292.06774902 101.37927246 C-236.86734939 73.42937883 -236.86734939 73.42937883 -210.09375 61.6875 C-206.83924178 60.25981479 -203.59409043 58.81201081 -200.3510437 57.35850525 C-177.81229579 47.25749589 -155.05138903 37.70126262 -132.23828125 28.23931885 C-129.25994046 27.0036256 -126.28225212 25.76637085 -123.3046875 24.52880859 C-118.21654832 22.4144822 -113.12705495 20.30344719 -108.03649902 18.19494629 C-106.11446572 17.39873101 -104.19266042 16.60196505 -102.27111816 15.80456543 C-91.94959959 11.52372375 -81.60261257 7.31476724 -71.203125 3.2265625 C-70.28754822 2.8652977 -69.37197144 2.5040329 -68.4286499 2.13182068 C-44.96777126 -7.03591929 -22.88251476 -15.52977587 0 0 Z " fill="#090A4E" transform="translate(1652.3359375,92.96484375)"/>
<path d="M0 0 C13.75920541 7.20552735 22.90252021 19.14506064 27.8125 33.875 C28.27051312 40.09743543 27.36942163 43.98719462 24.4375 49.4375 C23.89838989 50.47112671 23.89838989 50.47112671 23.34838867 51.52563477 C14.3459519 68.39244625 2.20009603 83.45936195 -9.9453125 98.140625 C-16.00446321 105.52983319 -21.87434445 113.07203179 -27.5625 120.75 C-31.08422257 125.48329558 -34.75735644 130.06494067 -38.5 134.625 C-43.41613895 140.6175508 -48.12875383 146.72687772 -52.74414062 152.953125 C-56.06900295 157.42404079 -59.49296212 161.79589983 -63 166.125 C-68.32879827 172.71243811 -73.41660453 179.46396288 -78.47753906 186.25854492 C-82.6666529 191.87372871 -86.92737586 197.42460566 -91.25 202.9375 C-97.81806068 211.32889419 -104.14936283 219.88156068 -110.4375 228.48388672 C-113.34395154 232.45511808 -116.26650547 236.41446068 -119.1875 240.375 C-120.3542444 241.95827605 -121.52091106 243.5416094 -122.6875 245.125 C-129.6875 254.625 -129.6875 254.625 -131.43798828 257.00048828 C-132.60324949 258.58203036 -133.76828899 260.16373582 -134.93310547 261.74560547 C-137.86946859 265.73272196 -140.80976925 269.71682267 -143.7578125 273.6953125 C-149.83914085 281.91014785 -155.84910692 290.16450883 -161.71923828 298.53173828 C-165.33191344 303.67815281 -168.99726216 308.78396013 -172.6875 313.875 C-178.42384329 321.7940185 -184.07885584 329.76757096 -189.70361328 337.76611328 C-192.19398796 341.30541181 -194.691162 344.83990644 -197.1875 348.375 C-198.19271488 349.79947454 -199.19792323 351.2239537 -200.203125 352.6484375 C-202.14890209 355.4051659 -204.09690513 358.16029847 -206.046875 360.9140625 C-213.79532918 371.8625071 -221.45873407 382.8691245 -229.10986328 393.88574219 C-231.17372554 396.85518161 -233.24063135 399.82247733 -235.30859375 402.7890625 C-243.13276029 414.01565102 -250.9093292 425.27255676 -258.61962891 436.57763672 C-260.72664262 439.66499254 -262.83851511 442.74900992 -264.95043945 445.83300781 C-267.14768904 449.04219682 -269.34293126 452.2527567 -271.53808594 455.46337891 C-272.60854374 457.02850357 -273.67947909 458.59330176 -274.75097656 460.15771484 C-294.15395673 488.48944663 -313.45200829 516.90446855 -332.13476562 545.71728516 C-335.67782663 551.16756478 -339.2479514 556.60009812 -342.81439209 562.03509521 C-349.56634728 572.32663472 -356.29415793 582.63311585 -362.96337891 592.97851562 C-364.21637329 594.9197323 -365.47289886 596.85861969 -366.73046875 598.796875 C-382.75571798 623.5023431 -398.56702199 648.34858168 -414.2734375 673.2578125 C-416.19032299 676.29746347 -418.11231367 679.33377965 -420.0390625 682.3671875 C-426.58376917 692.68086482 -433.01393954 703.06154309 -439.40527344 713.47094727 C-442.97673174 719.28674826 -446.55871973 725.09479358 -450.1875 730.875 C-461.40797236 748.76347432 -472.39019488 766.80187311 -483.34960938 784.85107422 C-485.28734728 788.03928114 -487.22937495 791.22484879 -489.171875 794.41015625 C-497.68561238 808.38056795 -506.09754308 822.40812742 -514.43432617 836.48486328 C-515.22312593 837.81674279 -516.01194397 839.14861146 -516.80078125 840.48046875 C-517.37196938 841.44487885 -517.37196938 841.44487885 -517.95469666 842.42877197 C-521.17529652 847.86265003 -524.42697149 853.27749408 -527.6875 858.6875 C-532.77029521 867.13401152 -537.72786774 875.64870927 -542.64355469 884.19335938 C-544.35568929 887.16712385 -546.07211111 890.13838907 -547.7890625 893.109375 C-553.63376579 903.2257849 -559.46545442 913.34906179 -565.25 923.5 C-584.29238188 956.88432745 -604.05122144 989.7716597 -625.1875 1021.875 C-617.82441199 1030.71762374 -609.37767984 1037.97126587 -600.1875 1044.875 C-596.54161542 1043.32212323 -594.06233871 1041.07454367 -591.1875 1038.375 C-588.31266129 1035.67545633 -585.83338458 1033.42787677 -582.1875 1031.875 C-583.72393852 1035.55569887 -585.96900945 1037.86275204 -588.8125 1040.625 C-589.62976563 1041.42421875 -590.44703125 1042.2234375 -591.2890625 1043.046875 C-591.91554688 1043.65015625 -592.54203125 1044.2534375 -593.1875 1044.875 C-589.65778429 1048.7815864 -585.56054917 1051.45450442 -581.1875 1054.3125 C-580.40294434 1054.83110596 -579.61838867 1055.34971191 -578.81005859 1055.8840332 C-574.54917084 1058.69393185 -570.26828754 1061.47184835 -565.9765625 1064.234375 C-543.45617573 1078.73540008 -523.40451978 1093.44096043 -511.1875 1117.875 C-509.90348844 1131.78863348 -513.60612436 1143.89401747 -522.1875 1154.875 C-529.89919746 1163.71033436 -539.36607981 1172.68689454 -551.46484375 1174.31640625 C-563.20194465 1174.70472015 -570.45840316 1171.36106456 -580.1875 1164.875 C-580.5184668 1165.44718262 -580.84943359 1166.01936523 -581.19042969 1166.60888672 C-587.06824654 1176.74033358 -592.99002319 1186.82120169 -599.5 1196.5625 C-599.99540283 1197.30540283 -600.49080566 1198.04830566 -601.0012207 1198.8137207 C-603.71705799 1202.83773852 -606.58663144 1206.64807404 -609.625 1210.4375 C-614.57481742 1217.23076794 -616.24632722 1224.84456999 -618.1875 1232.875 C-618.57953613 1234.46707275 -618.57953613 1234.46707275 -618.97949219 1236.09130859 C-621.37067819 1245.8155559 -623.70914094 1255.55280919 -625.98925781 1265.30371094 C-633.69193799 1298.19914686 -633.69193799 1298.19914686 -646.1875 1309.875 C-646.93507568 1310.58329956 -646.93507568 1310.58329956 -647.69775391 1311.3059082 C-652.27925028 1315.46491689 -657.18430645 1318.28029534 -662.6875 1321.0625 C-664.06228516 1321.76959106 -664.06228516 1321.76959106 -665.46484375 1322.4909668 C-674.90584339 1327.31154505 -684.47690851 1331.85864989 -694.05761719 1336.39306641 C-723.97210358 1350.55694569 -753.64170467 1365.29322063 -782.55908203 1381.41064453 C-785.40911138 1382.99846508 -788.26510099 1384.57527713 -791.12109375 1386.15234375 C-806.65659826 1394.76062952 -821.96502577 1403.72707375 -837.1875 1412.875 C-838.69425293 1413.7736377 -838.69425293 1413.7736377 -840.23144531 1414.69042969 C-855.36567803 1423.73107677 -870.08302757 1433.34991137 -884.75 1443.125 C-885.63833527 1443.71655884 -886.52667053 1444.30811768 -887.44192505 1444.91760254 C-897.87384571 1451.87310117 -908.2164188 1458.93641894 -918.43041992 1466.20849609 C-936.0360693 1478.73747662 -953.55788948 1490.11969032 -976.1875 1487.875 C-984.94307358 1486.15372079 -991.46137398 1481.65225056 -997.1875 1474.875 C-1003.28439984 1464.99851794 -1005.87280564 1455.88718819 -1003.35038757 1444.40234375 C-1002.96538775 1442.86929306 -1002.56764592 1441.33940049 -1002.15893555 1439.8125 C-1001.94231797 1438.96379082 -1001.7257004 1438.11508163 -1001.50251865 1437.24065399 C-1000.78738498 1434.44914907 -1000.05570371 1431.66226035 -999.32421875 1428.875 C-998.81449713 1426.89521572 -998.3060396 1424.9151056 -997.79876709 1422.93469238 C-996.72418709 1418.74601207 -995.64330549 1414.55903442 -994.55734253 1410.37329102 C-991.74853503 1399.53893829 -988.9912802 1388.69140414 -986.234375 1377.84375 C-985.96428053 1376.78209122 -985.69418606 1375.72043243 -985.41590691 1374.62660217 C-979.44977636 1351.15832106 -973.88922859 1327.6329466 -969.1875 1303.875 C-968.93441071 1302.60224213 -968.93441071 1302.60224213 -968.6762085 1301.30377197 C-961.1402388 1263.25104294 -955.78372371 1224.68717033 -954.52832031 1185.88696289 C-954.17163534 1175.25168342 -953.54278195 1168.98110469 -946.1875 1160.875 C-945.53652344 1160.15441406 -944.88554688 1159.43382812 -944.21484375 1158.69140625 C-938.40506854 1152.59928682 -931.85663696 1147.51498246 -925.18994141 1142.41552734 C-923.08752489 1140.79808669 -921.00145258 1139.16127711 -918.91796875 1137.51953125 C-910.79277001 1131.12829249 -902.56734808 1124.92739248 -894.15820312 1118.91503906 C-876.01765095 1105.90253042 -858.39429177 1092.09694014 -841.1875 1077.875 C-842.1775 1076.39 -842.1775 1076.39 -843.1875 1074.875 C-842.49177376 1064.07835947 -836.34234079 1054.01802141 -831.421875 1044.59375 C-831.08697052 1043.9516861 -830.75206604 1043.30962219 -830.40701294 1042.64810181 C-828.70478999 1039.39180082 -826.98938281 1036.14329311 -825.25537109 1032.90380859 C-824.61024454 1031.68332479 -823.96522076 1030.46278666 -823.3203125 1029.2421875 C-822.74168457 1028.16050293 -822.16305664 1027.07881836 -821.56689453 1025.96435547 C-820.1667973 1022.82863328 -819.40374648 1020.30000689 -819.1875 1016.875 C-820.8022514 1014.69141571 -822.24025051 1013.08204784 -824.1875 1011.25 C-832.25381605 1003.07420976 -839.12037232 993.64635074 -839.2109375 981.8125 C-838.72601477 970.78688847 -835.24107427 963.21572286 -828.1875 954.875 C-827.70925781 954.28976562 -827.23101563 953.70453125 -826.73828125 953.1015625 C-819.16298798 944.66760878 -805.64407439 937.1344898 -794.43359375 935.46484375 C-767.54258262 934.06837313 -738.61898123 957.48032423 -717.1875 970.875 C-715.8675 957.675 -714.5475 944.475 -713.1875 930.875 C-712.8575 930.875 -712.5275 930.875 -712.1875 930.875 C-712.5175 946.385 -712.8475 961.895 -713.1875 977.875 C-703.99203925 977.89111174 -703.99203925 977.89111174 -700.91479492 975.00292969 C-700.44146729 974.19243164 -699.96813965 973.38193359 -699.48046875 972.546875 C-698.9292334 971.63873047 -698.37799805 970.73058594 -697.81005859 969.79492188 C-697.27461426 968.83134766 -696.73916992 967.86777344 -696.1875 966.875 C-695.6404541 965.94751953 -695.0934082 965.02003906 -694.52978516 964.06445312 C-692.80785418 961.10795868 -691.14847521 958.12302126 -689.5 955.125 C-688.89260986 954.03227783 -688.28521973 952.93955566 -687.65942383 951.8137207 C-684.8088313 946.67402163 -681.9877485 941.51977289 -679.2109375 936.33984375 C-673.08528305 924.9258621 -666.58551889 913.79240884 -659.81713867 902.75073242 C-654.67052459 894.35058808 -649.64558248 885.88764534 -644.6875 877.375 C-638.81377055 867.29842719 -632.83540019 857.29343987 -626.75976562 847.33740234 C-620.99712085 837.89188431 -615.32234863 828.39726394 -609.6875 818.875 C-603.40765674 808.26421394 -597.06618226 797.69477115 -590.64651489 787.16802979 C-584.89830127 777.73879939 -579.24640972 768.25529023 -573.625 758.75 C-567.10765069 747.73122129 -560.48881897 736.78523103 -553.75366211 725.89794922 C-549.84942623 719.58524017 -545.99045899 713.24920083 -542.1875 706.875 C-535.65359081 695.93206635 -528.95853939 685.08951664 -522.26513672 674.24365234 C-519.51468306 669.78410363 -516.77040081 665.32077276 -514.02612305 660.85742188 C-493.60060213 627.64103072 -472.93298415 594.58332152 -451.98291016 561.6953125 C-450.17825998 558.86048536 -448.37590203 556.02421354 -446.57421875 553.1875 C-439.96932643 542.79052723 -433.33958277 532.41116487 -426.62451172 522.08496094 C-425.65665442 520.59650625 -424.6895466 519.10756399 -423.72314453 517.61816406 C-404.83528751 488.51268085 -385.84659888 459.4572029 -366.21826172 430.84472656 C-363.9699973 427.55693041 -361.73526608 424.26021772 -359.50390625 420.9609375 C-349.51005715 406.1867494 -339.42752739 391.48027559 -329.1875 376.875 C-328.64544922 376.10124023 -328.10339844 375.32748047 -327.54492188 374.53027344 C-320.39503574 364.33340829 -313.13154938 354.22118216 -305.82421875 344.13671875 C-304.20240936 341.89560267 -302.58484868 339.65148685 -300.96875 337.40625 C-290.06969304 322.26876287 -279.00308781 307.26100171 -267.79125977 292.35375977 C-263.5742342 286.74141489 -259.40129967 281.09857765 -255.25 275.4375 C-250.28512392 268.6690078 -245.23041885 261.97552489 -240.125 255.3125 C-235.21336734 248.90095327 -230.38556345 242.44467945 -225.6875 235.875 C-218.96434146 226.4735357 -211.94261781 217.30863235 -204.91308594 208.13525391 C-202.77499371 205.33467979 -200.66591203 202.51420427 -198.5625 199.6875 C-193.67205177 193.14196699 -188.63420492 186.71198648 -183.609375 180.26953125 C-180.72289155 176.56733715 -177.8557387 172.85093241 -175 169.125 C-171.22365056 164.20653512 -167.40796151 159.32130577 -163.5690918 154.45166016 C-160.97766432 151.16183059 -158.39910182 147.86269403 -155.8359375 144.55078125 C-149.6052848 136.50115046 -143.31485821 128.5139975 -136.87158203 120.63330078 C-133.42812733 116.41740395 -130.03726278 112.16564576 -126.6875 107.875 C-121.10816253 100.73340714 -115.39733206 93.70190649 -109.6640625 86.68359375 C-108.35702459 85.0826452 -107.05326644 83.47902024 -105.75 81.875 C-101.31865296 76.43077364 -96.81486461 71.05390431 -92.26855469 65.70581055 C-89.40857147 62.33611255 -86.59475959 58.93451093 -83.8125 55.5 C-79.17304835 49.80199254 -74.35893137 44.26471425 -69.53125 38.7265625 C-66.79708997 35.58704735 -64.09801129 32.41953962 -61.40771484 29.24243164 C-46.52509605 11.71659527 -24.78303888 -12.33826553 0 0 Z " fill="#FB5EA5" transform="translate(1089.1875,689.125)"/>
<path d="M0 0 C1.85720653 0.01414756 3.71442444 0.0268594 5.57164967 0.0382911 C9.62189541 0.06615352 13.67189263 0.10380223 17.72198343 0.14883661 C24.47737218 0.2234656 31.23283654 0.27370336 37.98846054 0.32155991 C48.10191861 0.3953121 58.21526602 0.47807739 68.32859993 0.56720161 C136.66090879 1.16726981 204.98897386 1.36993283 273.32389409 1.35353065 C283.41643925 1.3511574 293.50898281 1.35095819 303.60152817 1.35204697 C304.33614756 1.35212335 305.07076694 1.35219974 305.82764752 1.35227844 C308.81360313 1.35259005 311.79955873 1.35290849 314.78551433 1.3532382 C342.30569763 1.35624053 369.82587759 1.35361088 397.34606037 1.3481413 C421.6295429 1.34335194 445.91302019 1.34386821 470.19650269 1.34860229 C497.8360152 1.3539734 525.47552484 1.35607542 553.1150378 1.35299003 C556.06306958 1.3526695 559.01110136 1.35235666 561.95913315 1.35204697 C563.04703939 1.35192835 563.04703939 1.35192835 564.15692354 1.35180734 C574.99040065 1.35068154 585.82387563 1.3519769 596.65735245 1.35452652 C608.92881773 1.35740116 621.20027593 1.35654072 633.47174062 1.35124578 C639.70254359 1.34864388 645.93333594 1.34754372 652.16413879 1.35089493 C682.55917471 1.39865354 682.55917471 1.39865354 712.94369507 0.72021484 C735.95896622 -0.08875089 758.98751854 0.06088476 782.01409888 0.05818844 C788.22081839 0.05699207 794.42753336 0.05017038 800.63424962 0.04411003 C817.1953017 0.02822077 833.75635267 0.02217044 850.317411 0.01736128 C858.16256794 0.01501218 866.00772417 0.01140864 873.85288056 0.0076659 C900.75794965 -0.00514251 927.66301837 -0.01587328 954.56809044 -0.0193367 C956.2492928 -0.01955832 957.93049517 -0.01978011 959.61169753 -0.02000205 C961.29661626 -0.02022268 962.98153499 -0.02044316 964.66645372 -0.0206635 C968.04593619 -0.02110602 971.42541866 -0.02155315 974.80490112 -0.02200317 C975.64278453 -0.02211256 976.48066794 -0.02222196 977.34394175 -0.02233466 C1004.5818807 -0.02597453 1031.81979319 -0.0419434 1059.057722 -0.06519354 C1087.92727248 -0.08979116 1116.79680782 -0.10350907 1145.66636908 -0.10470462 C1148.8340331 -0.10487606 1152.0016971 -0.10509148 1155.16936111 -0.10533905 C1155.9492005 -0.10539482 1156.72903988 -0.10545059 1157.53251076 -0.10550805 C1170.06429469 -0.10665714 1182.59605125 -0.11766481 1195.12782594 -0.13222611 C1207.70830424 -0.14659215 1220.28874749 -0.14982704 1232.86923175 -0.14178613 C1239.67993676 -0.13772539 1246.49054426 -0.13882394 1253.30123901 -0.15284348 C1259.53648941 -0.16556173 1265.77157839 -0.16440308 1272.0068285 -0.15225276 C1274.26038652 -0.15029247 1276.5139559 -0.1533895 1278.76749794 -0.16209713 C1298.15095941 -0.23224753 1314.3265571 1.4759607 1329.16085815 15.4057312 C1337.38475342 24.15710663 1342.04264252 34.28410199 1342.28585815 46.30807495 C1341.74852051 60.42998001 1335.63192536 71.31237274 1325.53585815 80.9057312 C1310.0157637 93.79428748 1292.43080529 93.65558489 1273.36823463 93.58572388 C1270.91047929 93.58775302 1268.45272475 93.59109779 1265.99497277 93.59563643 C1260.64180638 93.60248757 1255.28876502 93.60001886 1249.93561371 93.58931983 C1241.92185559 93.57335641 1233.90816374 93.57477032 1225.89439446 93.57950134 C1212.23534752 93.58705159 1198.57634095 93.58031234 1184.91730118 93.56576347 C1171.07691588 93.55106718 1157.23654966 93.54288137 1143.39615631 93.54261971 C1142.08456143 93.54258751 1142.08456143 93.54258751 1140.74646968 93.54255467 C1137.18516103 93.54248708 1133.62385237 93.54246317 1130.06254372 93.54249537 C1093.9151736 93.54278936 1057.76783216 93.52351013 1021.62047343 93.49633352 C1016.6262829 93.49258148 1011.63209235 93.48885058 1006.63790178 93.48514175 C1005.14998249 93.48403533 1005.14998249 93.48403533 1003.63200422 93.48290655 C981.65253558 93.4666756 959.67306533 93.45611991 937.69359287 93.44666745 C932.67554019 93.44450611 927.65748753 93.44230366 922.63943487 93.44010621 C920.62552022 93.43922519 918.61160557 93.43834423 916.59769091 93.43746335 C915.59943628 93.43702645 914.60118164 93.43658954 913.57267686 93.43613939 C911.55350122 93.4352564 909.53432558 93.43437491 907.51514994 93.43349492 C850.2225961 93.40850836 792.93004848 93.37728374 735.63750648 93.33253479 C734.57659866 93.33170773 733.51569083 93.33088067 732.42263428 93.33002855 C720.59218705 93.32080381 708.76173988 93.31149984 696.93129273 93.30217254 C693.69323714 93.29962056 690.45518154 93.2970686 687.21712595 93.29451672 C685.05664724 93.29281316 682.89616853 93.2911081 680.73568983 93.28940156 C612.38636399 93.23542643 544.03705885 93.20255034 475.68771362 93.18746948 C458.46032519 93.18366053 441.23293679 93.17977864 424.00554848 93.17547607 C422.94484664 93.17521152 421.88414481 93.17494696 420.7913005 93.17467439 C388.11364685 93.16643389 355.4360004 93.15206848 322.75835228 93.13134766 C321.73283007 93.13069804 320.70730785 93.13004842 319.65070921 93.12937912 C297.14122856 93.11505876 274.63174918 93.09923436 252.12227056 93.08202855 C244.06872948 93.07588461 236.01518831 93.06984541 227.9616471 93.06385432 C225.95808109 93.0623624 223.95451509 93.06086455 221.95094908 93.05936076 C189.99672174 93.03542648 158.04251058 93.025942 126.088275 93.02355066 C93.91999694 93.02102541 61.75176943 93.00232361 29.58351597 92.96150919 C25.14306203 92.95587528 20.7026079 92.95041276 16.26215363 92.94505119 C15.3916716 92.94399307 14.52118958 92.94293494 13.62432931 92.94184475 C-0.18401472 92.92551361 -13.99230546 92.92598122 -27.80065502 92.93336354 C-41.36340928 92.94026432 -54.92605213 92.92945781 -68.48877625 92.89954322 C-76.44961189 92.88251948 -84.41017042 92.87928365 -92.3710082 92.89606146 C-98.26703601 92.90697453 -104.16280851 92.89208488 -110.0587989 92.86679446 C-112.43959072 92.86065664 -114.82042223 92.8630282 -117.20119383 92.87460167 C-120.41815195 92.8890393 -123.6335416 92.8730301 -126.85040891 92.84908772 C-128.24375639 92.86638381 -128.24375639 92.86638381 -129.6652523 92.88402931 C-133.97077562 92.82036833 -136.87667533 92.59386822 -140.3110939 89.85458392 C-144.019323 85.88946133 -144.59530095 82.77258175 -145.21414185 77.4682312 C-144.87622704 67.59360959 -137.55875924 59.67690932 -130.77664185 53.2182312 C-121.26979106 44.96675549 -110.62728593 38.53062655 -99.77664185 32.2182312 C-99.04284302 31.79010132 -98.30904419 31.36197144 -97.55300903 30.92086792 C-81.64422405 21.70398603 -65.28197474 13.66150671 -48.02664185 7.2807312 C-47.05847534 6.91520142 -46.09030884 6.54967163 -45.09280396 6.17306519 C-30.23850974 0.868757 -15.61557866 -0.2188851 0 0 Z " fill="#FC5FA6" transform="translate(391.7766418457031,2082.781768798828)"/>
<path d="M0 0 C13.10217135 7.50589978 16.99388608 22.31451306 21.375 35.6875 C21.90186177 37.27850744 22.42904928 38.86940704 22.95654297 40.46020508 C25.70672491 48.78454687 28.38233661 57.129663 30.9765625 65.50390625 C38.33680021 89.25292025 46.01826997 112.59769436 57.875 134.5625 C58.79152344 136.30466797 58.79152344 136.30466797 59.7265625 138.08203125 C71.23078092 159.17309835 87.00100564 177.43440947 107.875 189.5625 C108.68324219 190.03252441 109.49148438 190.50254883 110.32421875 190.98681641 C149.24934357 213.35130796 191.87313307 226.90882941 234.3757019 240.67027283 C236.2653536 241.28306472 238.15369841 241.89988212 240.04199219 242.5168457 C242.19476222 243.21942143 244.35009529 243.91423032 246.50878906 244.59838867 C257.58934354 248.21493235 269.60747414 252.80586082 276.3125 262.875 C278.82252647 267.81899153 278.6437456 272.57406511 277.28515625 277.85546875 C274.03878944 286.54735407 267.26739831 291.66016502 259.06640625 295.50390625 C252.18143675 298.59921512 245.17575541 300.71731768 237.90875244 302.71575928 C186.56700021 316.90808339 126.3304278 339.46362506 86.875 376.5625 C86.22273438 377.13871094 85.57046875 377.71492188 84.8984375 378.30859375 C72.69917171 389.57910885 64.50497124 405.02192626 56.875 419.5625 C56.53549316 420.19381836 56.19598633 420.82513672 55.84619141 421.47558594 C40.83153078 449.4164298 30.94210127 480.47917707 21.265625 510.59765625 C9.13075594 548.32907704 9.13075594 548.32907704 -6.15625 557.3515625 C-10.50652099 559.12601514 -13.68508363 559.04998467 -18.125 557.5625 C-33.20680348 547.61436155 -37.79638765 529.39129886 -43.15637207 513.23181152 C-44.64505896 508.74747254 -46.15623569 504.27081176 -47.66577148 499.79345703 C-48.79326252 496.44796274 -49.91792588 493.10152915 -51.04199219 489.75488281 C-73.49957955 419.08612622 -73.49957955 419.08612622 -120.125 363.5625 C-120.88941406 362.98371094 -121.65382812 362.40492188 -122.44140625 361.80859375 C-165.11109659 330.69076543 -220.9705733 315.40297773 -271.04052734 300.91210938 C-295.69697599 293.71253335 -295.69697599 293.71253335 -302.375 284.4375 C-305.00503523 279.42433081 -305.79530364 273.91401822 -304.68359375 268.35546875 C-302.13953931 260.75238033 -297.69889344 256.53763226 -290.82470703 252.82739258 C-285.7795549 250.46358961 -280.4717684 249.02363638 -275.125 247.5 C-273.83081822 247.1215279 -272.53696373 246.74193516 -271.2434082 246.36132812 C-266.05446925 244.83929538 -260.85697081 243.34726611 -255.65960693 241.85430908 C-223.79381133 232.70018525 -193.1823466 222.66588808 -163.125 208.5625 C-162.16126465 208.11229492 -161.1975293 207.66208984 -160.20458984 207.19824219 C-102.84221327 180.17603832 -75.82414463 136.03077912 -54.79101562 77.87402344 C-50.84638826 66.62682359 -47.12553647 55.31283956 -43.93359375 43.828125 C-43.41091919 41.95048462 -43.41091919 41.95048462 -42.87768555 40.03491211 C-42.23263589 37.68041019 -41.60143262 35.32204781 -40.98754883 32.95922852 C-37.28839913 19.25993103 -31.17362985 8.47646816 -19.17578125 0.7265625 C-13.39452954 -2.55498609 -6.07115013 -2.64485748 0 0 Z " fill="#FC5FA6" transform="translate(305.125,180.4375)"/>
<path d="M0 0 C3.80608263 1.60540926 6.58279043 4.16043488 9.625 6.875 C20.33030746 16.17228631 32.48447735 23.56582705 44.578125 30.90625 C48.64927373 33.38266473 52.66498716 35.94564342 56.6875 38.5 C64.4556839 43.427348 72.2815717 48.25598644 80.125 53.0625 C87.97074474 57.8726183 95.76234456 62.74205359 103.46069336 67.78417969 C109.79654751 71.91297471 116.23906455 75.86254103 122.6875 79.8125 C130.87699814 84.82940997 139.03269612 89.89016788 147.125 95.0625 C172.81506782 111.46404503 198.28042055 127.22684215 226 140 C225.29683305 145.08381623 223.9184276 149.79362171 222.4375 154.6875 C219.06188014 166.09836975 216.49332082 177.67460997 213.98022461 189.29956055 C209.76264724 208.5585313 204.62476361 227.56082809 187.03100586 238.91625977 C177.55370248 244.268977 167.87101256 249.09866741 158.0625 253.8125 C156.40196602 254.61560385 154.74164949 255.41915745 153.08154297 256.22314453 C146.34990178 259.47964027 139.61158514 262.72116375 132.84765625 265.91015625 C107.36373242 277.92594075 82.1979033 290.81809739 57.59619141 304.55175781 C54.76002942 306.13386359 51.91719242 307.70360769 49.07421875 309.2734375 C33.535771 317.88242891 18.22496833 326.85057492 3 336 C1.99549805 336.5990918 0.99099609 337.19818359 -0.04394531 337.81542969 C-15.17817803 346.85607677 -29.89552757 356.47491137 -44.5625 366.25 C-45.45083527 366.84155884 -46.33917053 367.43311768 -47.25442505 368.04260254 C-57.68634571 374.99810117 -68.0289188 382.06141894 -78.24291992 389.33349609 C-95.8485693 401.86247662 -113.37038948 413.24469032 -136 411 C-144.75557358 409.27872079 -151.27387398 404.77725056 -157 398 C-163.09689984 388.12351794 -165.68530564 379.01218819 -163.16288757 367.52734375 C-162.77788775 365.99429306 -162.38014592 364.46440049 -161.97143555 362.9375 C-161.75481797 362.08879082 -161.5382004 361.24008163 -161.31501865 360.36565399 C-160.59988498 357.57414907 -159.86820371 354.78726035 -159.13671875 352 C-158.62699713 350.02021572 -158.1185396 348.0401056 -157.61126709 346.05969238 C-156.53668709 341.87101207 -155.45580549 337.68403442 -154.36984253 333.49829102 C-151.56103503 322.66393829 -148.8037802 311.81640414 -146.046875 300.96875 C-145.77678053 299.90709122 -145.50668606 298.84543243 -145.22840691 297.75160217 C-139.26227636 274.28332106 -133.70172859 250.7579466 -129 227 C-128.74691071 225.72724213 -128.74691071 225.72724213 -128.4887085 224.42877197 C-120.9527388 186.37604294 -115.59622371 147.81217033 -114.34082031 109.01196289 C-113.98413534 98.37668342 -113.35528195 92.10610469 -106 84 C-105.34902344 83.27941406 -104.69804687 82.55882812 -104.02734375 81.81640625 C-98.21756854 75.72428682 -91.66913696 70.63998246 -85.00244141 65.54052734 C-82.90002489 63.92308669 -80.81395258 62.28627711 -78.73046875 60.64453125 C-70.60527001 54.25329249 -62.37984808 48.05239248 -53.97070312 42.04003906 C-35.44973985 28.75465545 -17.41588629 14.70462194 0 0 Z " fill="#FB5EA5" transform="translate(249,1766)"/>
<path d="M0 0 C7.91101823 3.87795011 12.54517553 11.11399671 15.875 19 C16.20886719 19.77126221 16.54273438 20.54252441 16.88671875 21.3371582 C21.53698453 32.32166943 25.20498553 43.67773525 29 54.97753906 C36.58232733 77.4801687 44.76119731 101.17199065 61 119 C61.90105469 120.02287109 61.90105469 120.02287109 62.8203125 121.06640625 C72.90201595 131.86823138 86.08686816 139.65842326 98.87792969 146.80908203 C100.92244947 147.9564782 102.94919816 149.1312363 104.9765625 150.30859375 C120.29280607 159.01322531 137.04990479 164.10078714 153.74609375 169.46875 C154.69393738 169.77428299 155.64178101 170.07981598 156.61834717 170.39460754 C161.38199837 171.92905144 166.14878 173.4517343 170.92333984 174.9519043 C198.40794387 183.67247818 198.40794387 183.67247818 205.8125 193.375 C207.40221878 196.8891152 208.13228324 199.09764455 208 203 C201.30521162 216.83404403 177.7739823 221.86506222 164.62011719 226.66943359 C118.39063144 243.33324056 118.39063144 243.33324056 76.60839844 268.76757812 C75.02468412 269.981086 73.4225787 271.17046986 71.8203125 272.359375 C63.83012689 278.5807409 58.27052543 285.46170449 53 294 C52.63342285 294.59006836 52.2668457 295.18013672 51.88916016 295.78808594 C41.89483561 312.29732908 36.01842056 331.19104718 29.31852722 349.20755005 C28.09776494 352.48591781 26.87110968 355.76206981 25.64437866 359.03820801 C24.77903377 361.35961298 23.92481182 363.68488048 23.0715332 366.01074219 C20.32079738 373.43165207 17.3541375 380.65817342 13.83203125 387.75 C13.34999237 388.7233152 13.34999237 388.7233152 12.85821533 389.71629333 C10.08616786 395.14452223 7.00128416 400.37280603 2 404 C-1.98389611 404.56912802 -3.70191294 403.87045214 -7.00390625 401.65625 C-14.75527004 395.41985864 -19.4164919 386.85977771 -23.375 377.875 C-23.7558374 377.0188208 -24.1366748 376.1626416 -24.52905273 375.28051758 C-29.38295836 364.12910954 -33.13450876 352.59075987 -36.97949219 341.06347656 C-51.01698512 299.14654492 -69.23978719 270.78879523 -109.48510742 250.65942383 C-126.04047107 242.64139549 -143.48659636 236.51473853 -160.890625 230.62109375 C-162.15600349 230.19206253 -162.15600349 230.19206253 -163.44694519 229.75436401 C-167.59481682 228.35096276 -171.74644095 226.96065956 -175.90551758 225.59082031 C-198.52482819 218.07403587 -198.52482819 218.07403587 -206.625 210.3125 C-207.42164063 209.56613281 -208.21828125 208.81976562 -209.0390625 208.05078125 C-211.72408734 205.24273734 -212.93238097 203.5973014 -213.375 199.6875 C-212.85041881 194.52911831 -211.15325898 191.78451907 -207.15234375 188.46875 C-196.59744442 180.95963831 -183.67732735 177.42145728 -171.54187012 173.26867676 C-121.75381046 156.1841497 -72.59808741 138.3916195 -48.06268311 88.53276062 C-40.04238155 71.76344891 -34.37127318 54.28667284 -28.99462891 36.5300293 C-16.71607511 -3.8599503 -16.71607511 -3.8599503 0 0 Z " fill="#FC5FA6" transform="translate(1723,917)"/>
<path d="M0 0 C3.07013429 2.63020651 4.72530739 5.87718237 6.5 9.4375 C6.83966797 10.11490234 7.17933594 10.79230469 7.52929688 11.49023438 C10.93237988 18.49658173 13.70304142 25.73543573 16.5 33 C22.06453087 47.43455349 28.0119606 61.30855548 37 74 C37.495 74.70382813 37.99 75.40765625 38.5 76.1328125 C52.85693381 94.43790311 80.99822528 101.68405747 101.95288086 108.9519043 C111.23215564 112.18437046 120.17705979 115.64011443 129 120 C121.49494532 136.3305025 93.46862259 144.92869681 78.19726562 151.43481445 C67.38884846 156.06131266 56.86671212 160.89213765 47.83203125 168.5546875 C46 170 46 170 43.88671875 170.9453125 C41.45182212 172.30643484 41.10044327 173.45577515 40 176 C38.79440526 178.04328499 37.58566538 180.08471532 36.375 182.125 C30.5692211 192.14086393 26.20127524 202.78016015 21.70703125 213.4296875 C8.95506628 243.60053242 8.95506628 243.60053242 -3 253 C-8.49426564 243.25652731 -13.02773941 233.4389884 -17.01531982 222.99337769 C-26.83147798 196.67318764 -26.83147798 196.67318764 -43 174 C-43.63808594 173.32195312 -44.27617188 172.64390625 -44.93359375 171.9453125 C-57.32125433 159.90890883 -73.68209605 154.598913 -89.65966797 149.14257812 C-95.28713799 147.21767243 -100.89487402 145.23884828 -106.5 143.25 C-107.51956787 142.89744141 -108.53913574 142.54488281 -109.58959961 142.18164062 C-128.81014215 135.3797157 -128.81014215 135.3797157 -133 127 C-133.5625 124.1875 -133.5625 124.1875 -133 121 C-128.25042831 116.96517717 -122.18925086 114.60477759 -116.4375 112.375 C-115.59888428 112.04218018 -114.76026855 111.70936035 -113.89624023 111.36645508 C-108.48809046 109.25364881 -103.03349441 107.30111646 -97.5390625 105.42578125 C-66.48815556 94.96139265 -66.48815556 94.96139265 -41 75 C-40.24589844 74.17757812 -39.49179687 73.35515625 -38.71484375 72.5078125 C-28.96426719 61.09872666 -24.79579966 47.15429836 -20.32543945 33.12426758 C-16.0771549 19.86472602 -11.43181978 8.70006025 0 0 Z " fill="#FC5FA6" transform="translate(672,0)"/>
<path d="M0 0 C4.08399316 1.22704926 7.3797994 2.67657774 10.9140625 5.0546875 C11.82978027 5.66344727 12.74549805 6.27220703 13.68896484 6.89941406 C14.65785645 7.55135742 15.62674805 8.20330078 16.625 8.875 C24.11269723 13.84141478 31.63983365 18.67787038 39.375 23.25 C46.94782209 27.73456432 54.36308672 32.40956418 61.73046875 37.22265625 C68.63785942 41.73206981 75.63383511 46.10277947 82.61474609 50.49707031 C84.93889164 51.9614961 87.26088789 53.42925869 89.58203125 54.8984375 C99.39881679 61.11099765 109.24141215 67.28114484 119.09643555 73.43286133 C125.24220991 77.2709668 131.37738199 81.12507475 137.5 85 C152.96291 94.78060754 168.48239037 104.46965856 184.0625 114.0625 C185.13975342 114.72612549 186.21700684 115.38975098 187.3269043 116.07348633 C192.64602428 119.34429922 197.97647146 122.59384839 203.33203125 125.8046875 C227.03916138 140.03916138 227.03916138 140.03916138 234 147 C233.64997946 150.5737578 232.54021271 153.18280839 230.69921875 156.23046875 C230.22266846 157.02453125 229.74611816 157.81859375 229.25512695 158.63671875 C228.73781006 159.47847656 228.22049316 160.32023437 227.6875 161.1875 C227.15278076 162.06664062 226.61806152 162.94578125 226.06713867 163.8515625 C218.00183818 177.01092329 209.46793249 189.80645059 200 202 C196.51010528 201.41431565 193.64244754 200.51756929 190.47265625 198.953125 C189.60938721 198.52717041 188.74611816 198.10121582 187.85668945 197.66235352 C186.93460693 197.19627686 186.01252441 196.7302002 185.0625 196.25 C184.09465576 195.76265381 183.12681152 195.27530762 182.12963867 194.77319336 C166.54947359 186.81497954 151.71812931 177.56290396 136.9765625 168.1640625 C131.34101171 164.57199755 125.67049049 161.03655532 120 157.5 C111.87129373 152.42648609 103.75751783 147.3304036 95.66015625 142.20703125 C90.1342182 138.71199351 84.59369623 135.24106578 79.0456543 131.78125 C73.95486818 128.60384294 68.88254642 125.39786883 63.8125 122.1875 C52.45169501 114.99876836 41.03125297 107.90347298 29.55859375 100.89453125 C26.36487543 98.94165786 23.17937105 96.97610388 20 95 C18.77579346 94.24033936 18.77579346 94.24033936 17.52685547 93.46533203 C3.52515866 84.75001551 -9.91713977 75.99548837 -22 64.69140625 C-24.19954124 62.83124735 -26.49844654 61.42015275 -29 60 C-27.51301137 46.34045327 -19.45101267 33.76272675 -13.25 21.6875 C-12.74953156 20.70786285 -12.74953156 20.70786285 -12.23895264 19.70843506 C-11.27526977 17.82686893 -10.30320281 15.94990047 -9.328125 14.07421875 C-8.47589355 12.42812622 -8.47589355 12.42812622 -7.60644531 10.7487793 C-6.21427652 8.36664732 -4.99781658 6.8418026 -3 5 C-1.96642853 3.35394174 -0.95939668 1.69036558 0 0 Z " fill="#090A4E" transform="translate(275,1704)"/>
</svg>
